<svg xmlns="http://www.w3.org/2000/svg" width="1440" height="900"><path d="M820,408L716,482L819,513Z" fill="#3b7419" stroke="#3b7419" stroke-width="1.51"/><path d="M820,408L695,365L716,482Z" fill="#387112" stroke="#387112" stroke-width="1.51"/><path d="M716,482L736,649L819,513Z" fill="#437b27" stroke="#437b27" stroke-width="1.51"/><path d="M695,365L612,490L716,482Z" fill="#37700d" stroke="#37700d" stroke-width="1.51"/><path d="M819,513L943,538L820,408Z" fill="#447c28" stroke="#447c28" stroke-width="1.51"/><path d="M822,658L943,538L819,513Z" fill="#4d8639" stroke="#4d8639" stroke-width="1.51"/><path d="M628,616L736,649L716,482Z" fill="#447e2b" stroke="#447e2b" stroke-width="1.51"/><path d="M736,649L822,658L819,513Z" fill="#4c8538" stroke="#4c8538" stroke-width="1.51"/><path d="M820,408L858,271L695,365Z" fill="#407b23" stroke="#407b23" stroke-width="1.51"/><path d="M1004,354L858,271L820,408Z" fill="#488332" stroke="#488332" stroke-width="1.51"/><path d="M612,490L628,616L716,482Z" fill="#417a23" stroke="#417a23" stroke-width="1.51"/><path d="M858,271L728,241L695,365Z" fill="#417d25" stroke="#417d25" stroke-width="1.51"/><path d="M695,365L582,347L612,490Z" fill="#3b7619" stroke="#3b7619" stroke-width="1.51"/><path d="M728,241L582,347L695,365Z" fill="#3e7b20" stroke="#3e7b20" stroke-width="1.51"/><path d="M612,490L494,542L628,616Z" fill="#46812d" stroke="#46812d" stroke-width="1.51"/><path d="M943,538L1004,354L820,408Z" fill="#457e2b" stroke="#457e2b" stroke-width="1.51"/><path d="M822,658L946,682L943,538Z" fill="#56904a" stroke="#56904a" stroke-width="1.51"/><path d="M943,538L1130,476L1004,354Z" fill="#4c8638" stroke="#4c8638" stroke-width="1.51"/><path d="M881,743L946,682L822,658Z" fill="#5b9854" stroke="#5b9854" stroke-width="1.51"/><path d="M453,419L494,542L612,490Z" fill="#407c23" stroke="#407c23" stroke-width="1.51"/><path d="M736,649L680,741L822,658Z" fill="#518b41" stroke="#518b41" stroke-width="1.51"/><path d="M628,616L680,741L736,649Z" fill="#4f893d" stroke="#4f893d" stroke-width="1.51"/><path d="M580,759L680,741L628,616Z" fill="#559148" stroke="#559148" stroke-width="1.51"/><path d="M1004,354L1014,274L858,271Z" fill="#4f8c3f" stroke="#4f8c3f" stroke-width="1.51"/><path d="M858,271L862,153L728,241Z" fill="#498735" stroke="#498735" stroke-width="1.51"/><path d="M680,741L881,743L822,658Z" fill="#57934d" stroke="#57934d" stroke-width="1.51"/><path d="M1014,274L862,153L858,271Z" fill="#508e41" stroke="#508e41" stroke-width="1.51"/><path d="M582,347L453,419L612,490Z" fill="#3d791e" stroke="#3d791e" stroke-width="1.51"/><path d="M728,241L560,216L582,347Z" fill="#43812a" stroke="#43812a" stroke-width="1.51"/><path d="M694,143L560,216L728,241Z" fill="#46852f" stroke="#46852f" stroke-width="1.51"/><path d="M862,153L694,143L728,241Z" fill="#488733" stroke="#488733" stroke-width="1.51"/><path d="M480,242L453,419L582,347Z" fill="#44822c" stroke="#44822c" stroke-width="1.51"/><path d="M1127,629L1130,476L943,538Z" fill="#599450" stroke="#599450" stroke-width="1.51"/><path d="M1004,354L1137,266L1014,274Z" fill="#56944c" stroke="#56944c" stroke-width="1.51"/><path d="M443,604L580,759L628,616Z" fill="#539046" stroke="#539046" stroke-width="1.51"/><path d="M680,741L816,937L881,743Z" fill="#5b9858" stroke="#5b9858" stroke-width="1.51"/><path d="M946,682L1127,629L943,538Z" fill="#5c9855" stroke="#5c9855" stroke-width="1.51"/><path d="M881,743L1007,745L946,682Z" fill="#63a062" stroke="#63a062" stroke-width="1.51"/><path d="M1068,753L1007,745L965,908Z" fill="#6aab75" stroke="#6aab75" stroke-width="1.51"/><path d="M494,542L443,604L628,616Z" fill="#4c8839" stroke="#4c8839" stroke-width="1.51"/><path d="M315,544L443,604L494,542Z" fill="#4d8b3c" stroke="#4d8b3c" stroke-width="1.51"/><path d="M1130,476L1145,420L1004,354Z" fill="#528e44" stroke="#528e44" stroke-width="1.51"/><path d="M560,216L480,242L582,347Z" fill="#478631" stroke="#478631" stroke-width="1.51"/><path d="M452,119L480,242L560,216Z" fill="#4d8f3d" stroke="#4d8f3d" stroke-width="1.51"/><path d="M694,143L585,140L560,216Z" fill="#4a8b37" stroke="#4a8b37" stroke-width="1.51"/><path d="M1007,745L1127,629L946,682Z" fill="#65a265" stroke="#65a265" stroke-width="1.51"/><path d="M1273,490L1235,368L1145,420Z" fill="#599652" stroke="#599652" stroke-width="1.51"/><path d="M1014,274L998,134L862,153Z" fill="#56964c" stroke="#56964c" stroke-width="1.51"/><path d="M862,153L735,-1L694,143Z" fill="#498b38" stroke="#498b38" stroke-width="1.51"/><path d="M694,143L573,-2L585,140Z" fill="#498c39" stroke="#498c39" stroke-width="1.51"/><path d="M1137,266L998,134L1014,274Z" fill="#5a9a54" stroke="#5a9a54" stroke-width="1.51"/><path d="M1145,420L1137,266L1004,354Z" fill="#57944c" stroke="#57944c" stroke-width="1.51"/><path d="M1007,745L1068,753L1127,629Z" fill="#6aa86f" stroke="#6aa86f" stroke-width="1.51"/><path d="M965,908L1007,745L881,743Z" fill="#66a66d" stroke="#66a66d" stroke-width="1.51"/><path d="M580,759L688,908L680,741Z" fill="#589754" stroke="#589754" stroke-width="1.51"/><path d="M443,604L485,773L580,759Z" fill="#5a9953" stroke="#5a9953" stroke-width="1.51"/><path d="M1127,629L1207,608L1130,476Z" fill="#619f60" stroke="#619f60" stroke-width="1.51"/><path d="M1145,420L1235,368L1137,266Z" fill="#5c9a56" stroke="#5c9a56" stroke-width="1.51"/><path d="M1270,761L1207,608L1127,629Z" fill="#6eae79" stroke="#6eae79" stroke-width="1.51"/><path d="M570,913L688,908L580,759Z" fill="#539756" stroke="#539756" stroke-width="1.51"/><path d="M315,544L345,633L443,604Z" fill="#539246" stroke="#539246" stroke-width="1.51"/><path d="M443,604L345,633L485,773Z" fill="#599851" stroke="#599851" stroke-width="1.51"/><path d="M351,295L328,383L453,419Z" fill="#478731" stroke="#478731" stroke-width="1.51"/><path d="M351,295L453,419L480,242Z" fill="#488834" stroke="#488834" stroke-width="1.51"/><path d="M452,119L351,295L480,242Z" fill="#4e913f" stroke="#4e913f" stroke-width="1.51"/><path d="M585,140L452,119L560,216Z" fill="#4d903e" stroke="#4d903e" stroke-width="1.51"/><path d="M824,-33L735,-1L862,153Z" fill="#478b3a" stroke="#478b3a" stroke-width="1.51"/><path d="M1273,490L1145,420L1130,476Z" fill="#58944e" stroke="#58944e" stroke-width="1.51"/><path d="M315,544L494,542L453,419Z" fill="#46832f" stroke="#46832f" stroke-width="1.51"/><path d="M328,383L315,544L453,419Z" fill="#428129" stroke="#428129" stroke-width="1.51"/><path d="M485,33L452,119L585,140Z" fill="#4d9342" stroke="#4d9342" stroke-width="1.51"/><path d="M688,908L816,937L680,741Z" fill="#50914f" stroke="#50914f" stroke-width="1.51"/><path d="M1400,631L1345,553L1207,608Z" fill="#60a36b" stroke="#60a36b" stroke-width="1.51"/><path d="M816,937L965,908L881,743Z" fill="#5b9f64" stroke="#5b9f64" stroke-width="1.51"/><path d="M1207,608L1273,490L1130,476Z" fill="#609d5d" stroke="#609d5d" stroke-width="1.51"/><path d="M977,6L824,-33L862,153Z" fill="#4d9245" stroke="#4d9245" stroke-width="1.51"/><path d="M977,6L862,153L998,134Z" fill="#56994f" stroke="#56994f" stroke-width="1.51"/><path d="M1103,33L977,6L998,134Z" fill="#579e58" stroke="#579e58" stroke-width="1.51"/><path d="M1134,107L998,134L1137,266Z" fill="#60a25f" stroke="#60a25f" stroke-width="1.51"/><path d="M688,908L712,998L816,937Z" fill="#478f50" stroke="#478f50" stroke-width="1.51"/><path d="M485,773L570,913L580,759Z" fill="#5b9c5b" stroke="#5b9c5b" stroke-width="1.51"/><path d="M450,896L570,913L485,773Z" fill="#579d5e" stroke="#579d5e" stroke-width="1.51"/><path d="M1230,153L1134,107L1137,266Z" fill="#65a869" stroke="#65a869" stroke-width="1.51"/><path d="M735,-1L573,-2L694,143Z" fill="#428833" stroke="#428833" stroke-width="1.51"/><path d="M709,-107L573,-2L735,-1Z" fill="#3b832f" stroke="#3b832f" stroke-width="1.51"/><path d="M452,119L337,104L351,295Z" fill="#529748" stroke="#529748" stroke-width="1.51"/><path d="M573,-2L485,33L585,140Z" fill="#488f3d" stroke="#488f3d" stroke-width="1.51"/><path d="M1235,368L1271,262L1137,266Z" fill="#60a160" stroke="#60a160" stroke-width="1.51"/><path d="M1354,409L1271,262L1235,368Z" fill="#599b5a" stroke="#599b5a" stroke-width="1.51"/><path d="M1134,107L1103,33L998,134Z" fill="#5ea461" stroke="#5ea461" stroke-width="1.51"/><path d="M946,-160L812,-108L824,-33Z" fill="#3e8a3b" stroke="#3e8a3b" stroke-width="1.51"/><path d="M1262,-33L1103,33L1134,107Z" fill="#5fa969" stroke="#5fa969" stroke-width="1.51"/><path d="M560,1009L712,998L688,908Z" fill="#469053" stroke="#469053" stroke-width="1.51"/><path d="M816,937L846,1041L965,908Z" fill="#4f9a62" stroke="#4f9a62" stroke-width="1.51"/><path d="M1271,262L1230,153L1137,266Z" fill="#64a768" stroke="#64a768" stroke-width="1.51"/><path d="M327,783L450,896L485,773Z" fill="#5fa465" stroke="#5fa465" stroke-width="1.51"/><path d="M570,913L560,1009L688,908Z" fill="#4a9456" stroke="#4a9456" stroke-width="1.51"/><path d="M217,743L327,783L345,633Z" fill="#62a664" stroke="#62a664" stroke-width="1.51"/><path d="M345,633L327,783L485,773Z" fill="#60a25f" stroke="#60a25f" stroke-width="1.51"/><path d="M315,544L228,544L345,633Z" fill="#539447" stroke="#539447" stroke-width="1.51"/><path d="M193,408L228,544L315,544Z" fill="#4d8e3c" stroke="#4d8e3c" stroke-width="1.51"/><path d="M193,408L315,544L328,383Z" fill="#478630" stroke="#478630" stroke-width="1.51"/><path d="M364,35L337,104L452,119Z" fill="#51994b" stroke="#51994b" stroke-width="1.51"/><path d="M197,284L193,408L328,383Z" fill="#4d8f3d" stroke="#4d8f3d" stroke-width="1.51"/><path d="M824,-33L812,-108L735,-1Z" fill="#3d8634" stroke="#3d8634" stroke-width="1.51"/><path d="M481,-105L364,35L485,33Z" fill="#469241" stroke="#469241" stroke-width="1.51"/><path d="M946,-160L824,-33L977,6Z" fill="#459044" stroke="#459044" stroke-width="1.51"/><path d="M812,-108L709,-107L735,-1Z" fill="#38822d" stroke="#38822d" stroke-width="1.51"/><path d="M485,33L364,35L452,119Z" fill="#4d9546" stroke="#4d9546" stroke-width="1.51"/><path d="M1273,490L1354,409L1235,368Z" fill="#559552" stroke="#559552" stroke-width="1.51"/><path d="M1207,608L1345,553L1273,490Z" fill="#5e9f62" stroke="#5e9f62" stroke-width="1.51"/><path d="M1270,761L1127,629L1068,753Z" fill="#70b17c" stroke="#70b17c" stroke-width="1.51"/><path d="M965,908L1130,914L1068,753Z" fill="#66ac7a" stroke="#66ac7a" stroke-width="1.51"/><path d="M1107,1052L1130,914L965,908Z" fill="#5ba97b" stroke="#5ba97b" stroke-width="1.51"/><path d="M1130,914L1270,761L1068,753Z" fill="#72b788" stroke="#72b788" stroke-width="1.51"/><path d="M1345,553L1354,409L1273,490Z" fill="#549555" stroke="#549555" stroke-width="1.51"/><path d="M1271,262L1355,226L1230,153Z" fill="#60a769" stroke="#60a769" stroke-width="1.51"/><path d="M712,998L846,1041L816,937Z" fill="#459156" stroke="#459156" stroke-width="1.51"/><path d="M197,284L328,383L351,295Z" fill="#4d8f3d" stroke="#4d8f3d" stroke-width="1.51"/><path d="M712,998L560,1009L846,1041Z" fill="#3e8c4e" stroke="#3e8c4e" stroke-width="1.51"/><path d="M495,1020L560,1009L570,913Z" fill="#48965b" stroke="#48965b" stroke-width="1.51"/><path d="M495,1020L570,913L450,896Z" fill="#4e9a5e" stroke="#4e9a5e" stroke-width="1.51"/><path d="M337,104L197,284L351,295Z" fill="#539748" stroke="#539748" stroke-width="1.51"/><path d="M481,-105L485,33L573,-2Z" fill="#428d3b" stroke="#428d3b" stroke-width="1.51"/><path d="M196,125L197,284L337,104Z" fill="#579f52" stroke="#579f52" stroke-width="1.51"/><path d="M846,1041L955,1042L965,908Z" fill="#4d9c67" stroke="#4d9c67" stroke-width="1.51"/><path d="M228,544L184,620L345,633Z" fill="#58994f" stroke="#58994f" stroke-width="1.51"/><path d="M83,483L184,620L228,544Z" fill="#4f9244" stroke="#4f9244" stroke-width="1.51"/><path d="M83,483L228,544L193,408Z" fill="#478a37" stroke="#478a37" stroke-width="1.51"/><path d="M1354,409L1355,226L1271,262Z" fill="#589e5f" stroke="#589e5f" stroke-width="1.51"/><path d="M1262,-33L1079,-120L1103,33Z" fill="#58a463" stroke="#58a463" stroke-width="1.51"/><path d="M560,1009L495,1020L846,1041Z" fill="#408f53" stroke="#408f53" stroke-width="1.51"/><path d="M346,928L495,1020L450,896Z" fill="#509e63" stroke="#509e63" stroke-width="1.51"/><path d="M346,928L450,896L327,783Z" fill="#5ba468" stroke="#5ba468" stroke-width="1.51"/><path d="M184,620L217,743L345,633Z" fill="#5fa25d" stroke="#5fa25d" stroke-width="1.51"/><path d="M210,869L346,928L327,783Z" fill="#5fa96e" stroke="#5fa96e" stroke-width="1.51"/><path d="M577,-172L481,-105L573,-2Z" fill="#3a8836" stroke="#3a8836" stroke-width="1.51"/><path d="M577,-172L573,-2L709,-107Z" fill="#378430" stroke="#378430" stroke-width="1.51"/><path d="M812,-108L577,-172L709,-107Z" fill="#317e28" stroke="#317e28" stroke-width="1.51"/><path d="M1079,-120L946,-160L977,6Z" fill="#49964e" stroke="#49964e" stroke-width="1.51"/><path d="M1079,-120L977,6L1103,33Z" fill="#529d58" stroke="#529d58" stroke-width="1.51"/><path d="M1270,761L1400,631L1207,608Z" fill="#68ad79" stroke="#68ad79" stroke-width="1.51"/><path d="M1345,553L1481,513L1354,409Z" fill="#509456" stroke="#509456" stroke-width="1.51"/><path d="M1354,409L1520,388L1355,226Z" fill="#4f985a" stroke="#4f985a" stroke-width="1.51"/><path d="M1385,774L1400,631L1270,761Z" fill="#69b284" stroke="#69b284" stroke-width="1.51"/><path d="M1262,-33L1134,107L1230,153Z" fill="#66ae71" stroke="#66ae71" stroke-width="1.51"/><path d="M1130,914L1234,938L1270,761Z" fill="#6db98e" stroke="#6db98e" stroke-width="1.51"/><path d="M1107,1052L1234,938L1130,914Z" fill="#60b187" stroke="#60b187" stroke-width="1.51"/><path d="M946,-160L577,-172L812,-108Z" fill="#32812e" stroke="#32812e" stroke-width="1.51"/><path d="M199,-26L196,125L337,104Z" fill="#54a154" stroke="#54a154" stroke-width="1.51"/><path d="M197,284L108,347L193,408Z" fill="#4a8f3c" stroke="#4a8f3c" stroke-width="1.51"/><path d="M199,-26L337,104L364,35Z" fill="#509c4f" stroke="#509c4f" stroke-width="1.51"/><path d="M955,1042L1107,1052L965,908Z" fill="#52a373" stroke="#52a373" stroke-width="1.51"/><path d="M846,1041L1107,1052L955,1042Z" fill="#4a9e6d" stroke="#4a9e6d" stroke-width="1.51"/><path d="M52,279L108,347L197,284Z" fill="#499140" stroke="#499140" stroke-width="1.51"/><path d="M34,753L210,869L217,743Z" fill="#64ad71" stroke="#64ad71" stroke-width="1.51"/><path d="M1361,918L1385,774L1270,761Z" fill="#6ab88e" stroke="#6ab88e" stroke-width="1.51"/><path d="M1344,36L1262,-33L1230,153Z" fill="#5eab6f" stroke="#5eab6f" stroke-width="1.51"/><path d="M108,347L83,483L193,408Z" fill="#448834" stroke="#448834" stroke-width="1.51"/><path d="M217,743L210,869L327,783Z" fill="#67ae71" stroke="#67ae71" stroke-width="1.51"/><path d="M346,928L327,1065L495,1020Z" fill="#4a9e66" stroke="#4a9e66" stroke-width="1.51"/><path d="M84,637L217,743L184,620Z" fill="#5ba15c" stroke="#5ba15c" stroke-width="1.51"/><path d="M1514,612L1481,513L1400,631Z" fill="#539e67" stroke="#539e67" stroke-width="1.51"/><path d="M1400,631L1481,513L1345,553Z" fill="#569d64" stroke="#569d64" stroke-width="1.51"/><path d="M1397,117L1344,36L1230,153Z" fill="#5fac72" stroke="#5fac72" stroke-width="1.51"/><path d="M1397,117L1230,153L1355,226Z" fill="#5faa6e" stroke="#5faa6e" stroke-width="1.51"/><path d="M1465,150L1397,117L1355,226Z" fill="#59a76e" stroke="#59a76e" stroke-width="1.51"/><path d="M83,483L84,637L184,620Z" fill="#4f9449" stroke="#4f9449" stroke-width="1.51"/><path d="M1234,938L1361,918L1270,761Z" fill="#68b78e" stroke="#68b78e" stroke-width="1.51"/><path d="M1107,1052L1267,994L1234,938Z" fill="#5fb48c" stroke="#5fb48c" stroke-width="1.51"/><path d="M1475,802L1514,612L1400,631Z" fill="#5daa7b" stroke="#5daa7b" stroke-width="1.51"/><path d="M1267,994L1361,918L1234,938Z" fill="#5eb48d" stroke="#5eb48d" stroke-width="1.51"/><path d="M1481,513L1520,388L1354,409Z" fill="#488f4f" stroke="#488f4f" stroke-width="1.51"/><path d="M1651,477L1520,388L1481,513Z" fill="#408c4f" stroke="#408c4f" stroke-width="1.51"/><path d="M-34,374L-22,526L83,483Z" fill="#3b832e" stroke="#3b832e" stroke-width="1.51"/><path d="M-66,611L34,753L84,637Z" fill="#529d57" stroke="#529d57" stroke-width="1.51"/><path d="M92,154L52,279L197,284Z" fill="#4c9647" stroke="#4c9647" stroke-width="1.51"/><path d="M1475,802L1400,631L1385,774Z" fill="#66b386" stroke="#66b386" stroke-width="1.51"/><path d="M196,125L92,154L197,284Z" fill="#529c4f" stroke="#529c4f" stroke-width="1.51"/><path d="M56,-2L92,154L196,125Z" fill="#509f52" stroke="#509f52" stroke-width="1.51"/><path d="M199,-26L364,35L325,-162Z" fill="#47994a" stroke="#47994a" stroke-width="1.51"/><path d="M1490,-24L1375,-95L1344,36Z" fill="#4da46b" stroke="#4da46b" stroke-width="1.51"/><path d="M1532,250L1465,150L1355,226Z" fill="#53a369" stroke="#53a369" stroke-width="1.51"/><path d="M199,1048L327,1065L346,928Z" fill="#4ca36d" stroke="#4ca36d" stroke-width="1.51"/><path d="M495,1020L327,1065L846,1041Z" fill="#409359" stroke="#409359" stroke-width="1.51"/><path d="M846,1041L327,1065L1107,1052Z" fill="#3d8c52" stroke="#3d8c52" stroke-width="1.51"/><path d="M325,-162L364,35L481,-105Z" fill="#419242" stroke="#419242" stroke-width="1.51"/><path d="M1262,-33L1239,-145L1079,-120Z" fill="#55a567" stroke="#55a567" stroke-width="1.51"/><path d="M1079,-120L1239,-145L946,-160Z" fill="#4a9b57" stroke="#4a9b57" stroke-width="1.51"/><path d="M1375,-95L1239,-145L1262,-33Z" fill="#50a468" stroke="#50a468" stroke-width="1.51"/><path d="M1375,-95L1262,-33L1344,36Z" fill="#52a66a" stroke="#52a66a" stroke-width="1.51"/><path d="M577,-172L325,-162L481,-105Z" fill="#388b3a" stroke="#388b3a" stroke-width="1.51"/><path d="M1361,918L1475,802L1385,774Z" fill="#63b58d" stroke="#63b58d" stroke-width="1.51"/><path d="M1666,395L1532,250L1520,388Z" fill="#439359" stroke="#439359" stroke-width="1.51"/><path d="M1520,388L1532,250L1355,226Z" fill="#4e9b5f" stroke="#4e9b5f" stroke-width="1.51"/><path d="M-22,526L84,637L83,483Z" fill="#488f41" stroke="#488f41" stroke-width="1.51"/><path d="M84,637L34,753L217,743Z" fill="#5da563" stroke="#5da563" stroke-width="1.51"/><path d="M210,869L199,1048L346,928Z" fill="#56a870" stroke="#56a870" stroke-width="1.51"/><path d="M-34,374L83,483L108,347Z" fill="#3f8733" stroke="#3f8733" stroke-width="1.51"/><path d="M1490,-24L1397,117L1465,150Z" fill="#53a870" stroke="#53a870" stroke-width="1.51"/><path d="M1490,-24L1344,36L1397,117Z" fill="#53a76e" stroke="#53a76e" stroke-width="1.51"/><path d="M52,279L-34,374L108,347Z" fill="#438c3a" stroke="#438c3a" stroke-width="1.51"/><path d="M-87,243L-34,374L52,279Z" fill="#418d3c" stroke="#418d3c" stroke-width="1.51"/><path d="M95,1047L199,1048L210,869Z" fill="#4da66f" stroke="#4da66f" stroke-width="1.51"/><path d="M1267,994L1370,1039L1361,918Z" fill="#55b18c" stroke="#55b18c" stroke-width="1.51"/><path d="M1361,918L1514,905L1475,802Z" fill="#59b38d" stroke="#59b38d" stroke-width="1.51"/><path d="M1107,1052L1370,1039L1267,994Z" fill="#57b28c" stroke="#57b28c" stroke-width="1.51"/><path d="M-57,746L62,884L34,753Z" fill="#5aa96c" stroke="#5aa96c" stroke-width="1.51"/><path d="M34,753L62,884L210,869Z" fill="#5baa6e" stroke="#5baa6e" stroke-width="1.51"/><path d="M92,154L-50,141L52,279Z" fill="#4a994a" stroke="#4a994a" stroke-width="1.51"/><path d="M199,-26L56,-2L196,125Z" fill="#4d9e50" stroke="#4d9e50" stroke-width="1.51"/><path d="M325,-162L181,-121L199,-26Z" fill="#459a4c" stroke="#459a4c" stroke-width="1.51"/><path d="M1514,612L1611,618L1481,513Z" fill="#4e9b67" stroke="#4e9b67" stroke-width="1.51"/><path d="M1654,779L1611,618L1514,612Z" fill="#51a577" stroke="#51a577" stroke-width="1.51"/><path d="M1654,779L1514,612L1475,802Z" fill="#5baf84" stroke="#5baf84" stroke-width="1.51"/><path d="M181,-121L56,-2L199,-26Z" fill="#44994c" stroke="#44994c" stroke-width="1.51"/><path d="M-22,526L-66,611L84,637Z" fill="#499347" stroke="#499347" stroke-width="1.51"/><path d="M-174,503L-66,611L-22,526Z" fill="#3f8b3c" stroke="#3f8b3c" stroke-width="1.51"/><path d="M1470,1058L1514,905L1361,918Z" fill="#4eaf8b" stroke="#4eaf8b" stroke-width="1.51"/><path d="M1593,121L1490,-24L1465,150Z" fill="#4ea670" stroke="#4ea670" stroke-width="1.51"/><path d="M1593,121L1465,150L1532,250Z" fill="#4fa46c" stroke="#4fa46c" stroke-width="1.51"/><path d="M1611,618L1651,477L1481,513Z" fill="#45955e" stroke="#45955e" stroke-width="1.51"/><path d="M1662,237L1593,121L1532,250Z" fill="#489f68" stroke="#489f68" stroke-width="1.51"/><path d="M-66,611L-57,746L34,753Z" fill="#53a05d" stroke="#53a05d" stroke-width="1.51"/><path d="M62,884L95,1047L210,869Z" fill="#51a66f" stroke="#51a66f" stroke-width="1.51"/><path d="M-34,374L-174,503L-22,526Z" fill="#37812c" stroke="#37812c" stroke-width="1.51"/><path d="M56,-2L-50,141L92,154Z" fill="#4b9d50" stroke="#4b9d50" stroke-width="1.51"/><path d="M1651,477L1666,395L1520,388Z" fill="#3c8c50" stroke="#3c8c50" stroke-width="1.51"/><path d="M-50,141L-87,243L52,279Z" fill="#449445" stroke="#449445" stroke-width="1.51"/><path d="M-30,935L95,1047L62,884Z" fill="#49a36b" stroke="#49a36b" stroke-width="1.51"/><path d="M199,1048L95,1047L327,1065Z" fill="#47a470" stroke="#47a470" stroke-width="1.51"/><path d="M1666,395L1662,237L1532,250Z" fill="#41975e" stroke="#41975e" stroke-width="1.51"/><path d="M1370,1039L1470,1058L1361,918Z" fill="#4cae8b" stroke="#4cae8b" stroke-width="1.51"/><path d="M1631,864L1654,779L1475,802Z" fill="#56b28c" stroke="#56b28c" stroke-width="1.51"/><path d="M1107,1052L1470,1058L1370,1039Z" fill="#4eaf8b" stroke="#4eaf8b" stroke-width="1.51"/><path d="M1658,1066L1470,1058L1107,1052Z" fill="#42ac8b" stroke="#42ac8b" stroke-width="1.51"/><path d="M1611,618L1772,530L1651,477Z" fill="#3d935e" stroke="#3d935e" stroke-width="1.51"/><path d="M1651,477L1770,395L1666,395Z" fill="#358a50" stroke="#358a50" stroke-width="1.51"/><path d="M1631,864L1475,802L1514,905Z" fill="#54b18c" stroke="#54b18c" stroke-width="1.51"/><path d="M1626,17L1490,-24L1593,121Z" fill="#44a36d" stroke="#44a36d" stroke-width="1.51"/><path d="M1626,17L1525,-98L1490,-24Z" fill="#3fa069" stroke="#3fa069" stroke-width="1.51"/><path d="M1490,-24L1525,-98L1375,-95Z" fill="#43a068" stroke="#43a068" stroke-width="1.51"/><path d="M1375,-95L1590,-157L1239,-145Z" fill="#42a065" stroke="#42a065" stroke-width="1.51"/><path d="M-57,746L-30,935L62,884Z" fill="#52a66a" stroke="#52a66a" stroke-width="1.51"/><path d="M1658,1066L1631,864L1514,905Z" fill="#41ac8a" stroke="#41ac8a" stroke-width="1.51"/><path d="M56,-2L-28,-36L-50,141Z" fill="#42994b" stroke="#42994b" stroke-width="1.51"/><path d="M-199,89L-159,281L-87,243Z" fill="#3e9242" stroke="#3e9242" stroke-width="1.51"/><path d="M55,-162L-28,-36L56,-2Z" fill="#3a9547" stroke="#3a9547" stroke-width="1.51"/><path d="M-57,746L-166,799L-30,935Z" fill="#50a568" stroke="#50a568" stroke-width="1.51"/><path d="M-66,611L-210,611L-57,746Z" fill="#499751" stroke="#499751" stroke-width="1.51"/><path d="M-187,423L-174,503L-34,374Z" fill="#327f29" stroke="#327f29" stroke-width="1.51"/><path d="M-159,281L-34,374L-87,243Z" fill="#3c8b39" stroke="#3c8b39" stroke-width="1.51"/><path d="M577,-172L55,-162L325,-162Z" fill="#3b9243" stroke="#3b9243" stroke-width="1.51"/><path d="M325,-162L55,-162L181,-121Z" fill="#3c9649" stroke="#3c9649" stroke-width="1.51"/><path d="M181,-121L55,-162L56,-2Z" fill="#3c9648" stroke="#3c9648" stroke-width="1.51"/><path d="M-199,89L-87,243L-50,141Z" fill="#439749" stroke="#439749" stroke-width="1.51"/><path d="M1734,139L1626,17L1593,121Z" fill="#43a36f" stroke="#43a36f" stroke-width="1.51"/><path d="M-159,281L-187,423L-34,374Z" fill="#368531" stroke="#368531" stroke-width="1.51"/><path d="M1727,806L1734,656L1654,779Z" fill="#4fad86" stroke="#4fad86" stroke-width="1.51"/><path d="M1654,779L1734,656L1611,618Z" fill="#4ca57a" stroke="#4ca57a" stroke-width="1.51"/><path d="M1666,395L1770,395L1662,237Z" fill="#389158" stroke="#389158" stroke-width="1.51"/><path d="M1662,237L1734,139L1593,121Z" fill="#43a16c" stroke="#43a16c" stroke-width="1.51"/><path d="M1772,530L1770,395L1651,477Z" fill="#358950" stroke="#358950" stroke-width="1.51"/><path d="M1734,656L1772,530L1611,618Z" fill="#429a6a" stroke="#429a6a" stroke-width="1.51"/><path d="M-174,503L-210,611L-66,611Z" fill="#3e8c3f" stroke="#3e8c3f" stroke-width="1.51"/><path d="M-187,423L-210,611L-174,503Z" fill="#348432" stroke="#348432" stroke-width="1.51"/><path d="M-210,611L-166,799L-57,746Z" fill="#4e9e5c" stroke="#4e9e5c" stroke-width="1.51"/><path d="M-28,-36L-199,89L-50,141Z" fill="#40984a" stroke="#40984a" stroke-width="1.51"/><path d="M55,-162L-30,-137L-28,-36Z" fill="#339344" stroke="#339344" stroke-width="1.51"/><path d="M1761,226L1734,139L1662,237Z" fill="#3f9d68" stroke="#3f9d68" stroke-width="1.51"/><path d="M1626,17L1590,-157L1525,-98Z" fill="#369d67" stroke="#369d67" stroke-width="1.51"/><path d="M1734,656L1782,903L1772,530Z" fill="#4ba67c" stroke="#4ba67c" stroke-width="1.51"/><path d="M1631,864L1727,806L1654,779Z" fill="#4daf8b" stroke="#4daf8b" stroke-width="1.51"/><path d="M1782,903L1727,806L1631,864Z" fill="#45ad8b" stroke="#45ad8b" stroke-width="1.51"/><path d="M1770,395L1761,226L1662,237Z" fill="#3b955f" stroke="#3b955f" stroke-width="1.51"/><path d="M1761,-28L1590,-157L1626,17Z" fill="#309c67" stroke="#309c67" stroke-width="1.51"/><path d="M1525,-98L1590,-157L1375,-95Z" fill="#3b9d66" stroke="#3b9d66" stroke-width="1.51"/><path d="M1239,-145L1590,-157L946,-160Z" fill="#4ca265" stroke="#4ca265" stroke-width="1.51"/><path d="M946,-160L1775,-163L577,-172Z" fill="#489b57" stroke="#489b57" stroke-width="1.51"/><path d="M-30,935L-85,1047L95,1047Z" fill="#3da069" stroke="#3da069" stroke-width="1.51"/><path d="M95,1047L-85,1047L327,1065Z" fill="#40a26d" stroke="#40a26d" stroke-width="1.51"/><path d="M-173,1010L-85,1047L-30,935Z" fill="#399d66" stroke="#399d66" stroke-width="1.51"/><path d="M-187,423L-199,89L-210,611Z" fill="#30812d" stroke="#30812d" stroke-width="1.51"/><path d="M-159,281L-199,89L-187,423Z" fill="#388c3b" stroke="#388c3b" stroke-width="1.51"/><path d="M-205,-5L-199,89L-28,-36Z" fill="#369346" stroke="#369346" stroke-width="1.51"/><path d="M-210,611L-186,891L-166,799Z" fill="#50a364" stroke="#50a364" stroke-width="1.51"/><path d="M-166,799L-186,891L-30,935Z" fill="#47a166" stroke="#47a166" stroke-width="1.51"/><path d="M327,1065L1658,1066L1107,1052Z" fill="#4ca275" stroke="#4ca275" stroke-width="1.51"/><path d="M1470,1058L1658,1066L1514,905Z" fill="#3caa8a" stroke="#3caa8a" stroke-width="1.51"/><path d="M-187,-164L-205,-5L-28,-36Z" fill="#2d9142" stroke="#2d9142" stroke-width="1.51"/><path d="M-199,89L-205,-5L-210,611Z" fill="#388e3d" stroke="#388e3d" stroke-width="1.51"/><path d="M1781,1004L1782,903L1631,864Z" fill="#3aaa8a" stroke="#3aaa8a" stroke-width="1.51"/><path d="M1727,806L1782,903L1734,656Z" fill="#4fb08c" stroke="#4fb08c" stroke-width="1.51"/><path d="M1772,530L1775,-163L1770,395Z" fill="#3d9862" stroke="#3d9862" stroke-width="1.51"/><path d="M1734,139L1761,-28L1626,17Z" fill="#39a06c" stroke="#39a06c" stroke-width="1.51"/><path d="M1761,226L1761,-28L1734,139Z" fill="#41a370" stroke="#41a370" stroke-width="1.51"/><path d="M1775,-163L1761,-28L1761,226Z" fill="#359e6b" stroke="#359e6b" stroke-width="1.51"/><path d="M1775,-163L1761,226L1770,395Z" fill="#41a16d" stroke="#41a16d" stroke-width="1.51"/><path d="M-186,891L-173,1010L-30,935Z" fill="#3e9e66" stroke="#3e9e66" stroke-width="1.51"/><path d="M1658,1066L1781,1004L1631,864Z" fill="#2fa88a" stroke="#2fa88a" stroke-width="1.51"/><path d="M-30,-137L-187,-164L-28,-36Z" fill="#2d9042" stroke="#2d9042" stroke-width="1.51"/><path d="M55,-162L-187,-164L-30,-137Z" fill="#298f40" stroke="#298f40" stroke-width="1.51"/><path d="M577,-172L-187,-164L55,-162Z" fill="#389546" stroke="#389546" stroke-width="1.51"/><path d="M1761,-28L1775,-163L1590,-157Z" fill="#239864" stroke="#239864" stroke-width="1.51"/><path d="M1590,-157L1775,-163L946,-160Z" fill="#3c9d64" stroke="#3c9d64" stroke-width="1.51"/><path d="M1782,903L1775,-163L1772,530Z" fill="#34894f" stroke="#34894f" stroke-width="1.51"/></svg>